<?xml version="1.0" encoding="UTF-8"?>
<svg width="57px" height="57px" viewBox="0 0 57 57" version="1.1" xmlns="http://www.w3.org/2000/svg" xmlns:xlink="http://www.w3.org/1999/xlink">
    <title>facebook-rounded-svgrepo-com</title>
    <g id="▶️--Grid" stroke="none" stroke-width="1" fill="none" fill-rule="evenodd">
        <g id="social" transform="translate(-175.000000, 0.000000)" fill="#00CEC9" fill-rule="nonzero">
            <g id="facebook-rounded-svgrepo-com" transform="translate(175.000000, 0.000000)">
                <path d="M52.546875,0 L4.453125,0 C1.99277344,0 0,1.99277344 0,4.453125 L0,52.546875 C0,55.0072266 1.99277344,57 4.453125,57 L52.546875,57 C55.0072266,57 57,55.0072266 57,52.546875 L57,4.453125 C57,1.99277344 55.0072266,0 52.546875,0 Z M34.7900391,23.6683594 L34.4671875,27.9322266 L30.0919922,27.9322266 L30.0919922,42.7388672 L24.5701172,42.7388672 L24.5701172,27.9322266 L21.6199219,27.9322266 L21.6199219,23.6683594 L24.5701172,23.6683594 L24.5701172,20.8072266 C24.5701172,19.5492188 24.6035156,17.6009766 25.5164063,16.3875 C26.4849609,15.1072266 27.8097656,14.2388672 30.0919922,14.2388672 C33.8103516,14.2388672 35.3689453,14.7732422 35.3689453,14.7732422 L34.6341797,19.1373047 C34.6341797,19.1373047 33.4095703,18.7810547 32.2628906,18.7810547 C31.1162109,18.7810547 30.0919922,19.1929688 30.0919922,20.3396484 L30.0919922,23.6683594 L34.7900391,23.6683594 L34.7900391,23.6683594 Z" id="Shape"></path>
            </g>
        </g>
    </g>
</svg>