<?xml version="1.0" encoding="UTF-8"?>
<svg width="57px" height="57px" viewBox="0 0 57 57" version="1.1" xmlns="http://www.w3.org/2000/svg" xmlns:xlink="http://www.w3.org/1999/xlink">
    <title>github-rounded-svgrepo-com</title>
    <g id="▶️--Grid" stroke="none" stroke-width="1" fill="none" fill-rule="evenodd">
        <g id="github-rounded-svgrepo-com" fill="#00CEC9" fill-rule="nonzero">
            <path d="M35.4492644,28.1317003 C34.5157377,27.9708497 33.5387911,27.9922965 32.5835545,28.0459133 C30.4125621,28.1638705 28.2415697,28.3676146 26.0705773,28.1745938 C25.0393559,28.0780835 23.9972796,27.9815731 22.9552032,28.0030198 C21.0664398,28.03519 19.4816154,28.6464224 18.5480887,30.4265027 C18.0813253,31.3058195 17.9727757,32.2494765 18.0053406,33.2253037 C18.0813253,35.9704878 19.2862261,37.5361006 21.9348368,38.318907 C24.0624093,38.9408628 26.2442567,39.0266498 28.436959,38.9837563 C29.2510811,38.9837563 30.0652033,39.0266498 30.8793254,38.9730329 C32.5618445,38.8765226 34.2117988,38.6298849 35.8074782,38.0508226 C37.4574324,37.4503136 38.4452339,36.3029124 38.8034477,34.6407892 C38.9445622,33.9973867 39.0096919,33.3218141 38.998837,32.6676882 C38.977127,30.4479494 37.4574324,28.464125 35.4492644,28.1317003 Z M24.7679819,35.3914255 C24.0624093,36.1527852 23.0420429,36.1635086 22.3147605,35.4235957 C21.7828673,34.8874269 21.4789284,34.061727 21.4789284,33.0322829 C21.5006383,32.3352635 21.7068826,31.5739039 22.3147605,30.9626715 C23.0420429,30.2227586 24.0624093,30.2334819 24.7679819,30.9841182 C25.8317681,32.120796 25.8317681,34.2547477 24.7679819,35.3914255 Z M34.6351423,35.4450424 C33.9729896,36.1206151 33.0177529,36.1420618 32.3121804,35.520106 C31.0964247,34.4263217 31.0964247,31.9921155 32.3121804,30.8876078 C33.006898,30.2549287 33.9621346,30.2763754 34.6351423,30.9519481 C35.2538751,31.5739039 35.4601194,32.3567103 35.4926843,33.1931336 C35.4601194,34.0402802 35.2430201,34.8123633 34.6351423,35.4450424 Z" id="Shape"></path>
            <path d="M52.546875,0 L4.453125,0 C1.99277344,0 0,1.99277344 0,4.453125 L0,52.546875 C0,55.0072266 1.99277344,57 4.453125,57 L52.546875,57 C55.0072266,57 57,55.0072266 57,52.546875 L57,4.453125 C57,1.99277344 55.0072266,0 52.546875,0 Z M43.10625,30.99375 C42.9503906,32.2628906 42.6832031,33.5654297 42.2267578,34.7566406 C40.8908203,38.1744141 38.2189453,40.0558594 34.6787109,40.6236328 C32.6525391,40.9464844 30.5707031,40.9576172 28.321875,41.1246094 C26.3068359,40.9464844 24.0914062,40.9242188 21.9427734,40.5457031 C17.7791016,39.8109375 14.9513672,36.8941406 14.1275391,32.7193359 C13.7044922,30.5929687 13.5820312,28.4554687 14.2388672,26.3402344 C14.5839844,25.2492187 15.1517578,24.2806641 15.8865234,23.4011719 C15.9867187,23.2898437 16.0757813,23.1228516 16.0646484,22.978125 C15.9421875,21.0632812 16.1648438,19.1707031 16.7326172,17.3449219 C17.2001953,15.8197266 16.8550781,15.9087891 18.5472656,16.3541016 C20.5845703,16.8884766 22.3658203,17.990625 24.1136719,19.1373047 C24.3140625,19.2708984 24.6257812,19.3265625 24.8707031,19.2820312 C27.3421875,18.9035156 29.8025391,18.88125 32.2740234,19.3154297 C32.4521484,19.3488281 32.6859375,19.2820312 32.8529297,19.1818359 C34.3558594,18.2021484 35.9033203,17.3226563 37.5955078,16.7103516 C38.2078125,16.4876953 38.8535156,16.3429688 39.4769531,16.1537109 C39.7552734,16.0757813 39.8777344,16.1759766 39.9779297,16.4431641 C40.7349609,18.5583984 41.0466797,20.7292969 40.9353516,22.9669922 C40.9242188,23.0894531 40.9910156,23.2564453 41.0689453,23.3566406 C42.9726562,25.5609375 43.4513672,28.1882812 43.10625,30.99375 Z" id="Shape"></path>
        </g>
    </g>
</svg>