<?xml version="1.0" encoding="UTF-8"?>
<svg width="57px" height="57px" viewBox="0 0 57 57" version="1.1" xmlns="http://www.w3.org/2000/svg" xmlns:xlink="http://www.w3.org/1999/xlink">
    <title>linkedin-rounded-svgrepo-com</title>
    <g id="▶️--Grid" stroke="none" stroke-width="1" fill="none" fill-rule="evenodd">
        <g id="social" transform="translate(-87.000000, 0.000000)" fill="#00CEC9" fill-rule="nonzero">
            <g id="linkedin-rounded-svgrepo-com" transform="translate(87.000000, 0.000000)">
                <path d="M52.546875,0 L4.453125,0 C1.99277344,0 0,1.99277344 0,4.453125 L0,52.546875 C0,55.0072266 1.99277344,57 4.453125,57 L52.546875,57 C55.0072266,57 57,55.0072266 57,52.546875 L57,4.453125 C57,1.99277344 55.0072266,0 52.546875,0 Z M20.5289062,40.4232422 L14.9736328,40.4232422 L14.9736328,22.6441406 L20.5289062,22.6441406 L20.5289062,40.4232422 Z M17.6009766,20.4175781 L17.5564453,20.4175781 C15.5414062,20.4175781 14.2388672,19.059375 14.2388672,17.3337891 C14.2388672,15.5748047 15.5859375,14.25 17.634375,14.25 C19.6828125,14.25 20.9408203,15.5748047 20.9853516,17.3337891 C20.9964844,19.0482422 19.6939453,20.4175781 17.6009766,20.4175781 Z M42.75,40.4232422 L36.4488281,40.4232422 L36.4488281,31.2275391 C36.4488281,28.8228516 35.4691406,27.1751953 33.2982422,27.1751953 C31.6394531,27.1751953 30.7154297,28.2884766 30.2923828,29.3572266 C30.1365234,29.7357422 30.1587891,30.2701172 30.1587891,30.815625 L30.1587891,40.4232422 L23.9132812,40.4232422 C23.9132812,40.4232422 23.9912109,24.1248047 23.9132812,22.6441406 L30.1587891,22.6441406 L30.1587891,25.4384766 C30.5261719,24.2138672 32.5189453,22.4771484 35.7029297,22.4771484 C39.6550781,22.4771484 42.75,25.0376953 42.75,30.5373047 L42.75,40.4232422 Z" id="Shape"></path>
            </g>
        </g>
    </g>
</svg>