<?xml version="1.0" encoding="UTF-8"?>
<svg width="57px" height="57px" viewBox="0 0 57 57" version="1.1" xmlns="http://www.w3.org/2000/svg" xmlns:xlink="http://www.w3.org/1999/xlink">
    <title>instagram-rounded-svgrepo-com</title>
    <g id="▶️--Grid" stroke="none" stroke-width="1" fill="none" fill-rule="evenodd">
        <g id="social" transform="translate(-262.000000, 0.000000)" fill="#00CEC9" fill-rule="nonzero">
            <g id="instagram-rounded-svgrepo-com" transform="translate(262.000000, 0.000000)">
                <path d="M28.4889209,33.4948454 C31.2416244,33.4948454 33.4948454,31.2576862 33.4948454,28.5 C33.4948454,27.4146456 33.1396578,26.4068165 32.5513784,25.5872631 C31.6412104,24.335783 30.1649621,23.5051546 28.5000205,23.5051546 C26.8350789,23.5051546 25.3588307,24.324708 24.4486626,25.5872631 C23.8603832,26.4068165 23.5051546,27.4146456 23.5051546,28.5 C23.4940961,31.2576862 25.7362174,33.4948454 28.4889209,33.4948454 Z" id="Path"></path>
                <polygon id="Path" points="39.371134 22.3190899 39.371134 18.2340562 39.371134 17.628866 38.7645494 17.628866 34.6701031 17.6396729 34.6917668 22.3298969"></polygon>
                <path d="M52.546875,0 L4.453125,0 C1.99277344,0 0,1.99277344 0,4.453125 L0,52.546875 C0,55.0072266 1.99277344,57 4.453125,57 L52.546875,57 C55.0072266,57 57,55.0072266 57,52.546875 L57,4.453125 C57,1.99277344 55.0072266,0 52.546875,0 Z M42.75,25.5720703 L42.75,37.2392578 C42.75,40.2785156 40.2785156,42.75 37.2392578,42.75 L19.7607422,42.75 C16.7214844,42.75 14.25,40.2785156 14.25,37.2392578 L14.25,25.5720703 L14.25,19.7496094 C14.25,16.7103516 16.7214844,14.2388672 19.7607422,14.2388672 L37.2392578,14.2388672 C40.2785156,14.2388672 42.75,16.7103516 42.75,19.7496094 L42.75,25.5720703 Z" id="Shape"></path>
                <path d="M36.2875088,28.4902289 C36.2875088,32.7881455 32.7942548,36.2843782 28.5,36.2843782 C24.2057452,36.2843782 20.7124912,32.7881455 20.7124912,28.4902289 C20.7124912,27.4547205 20.9238665,26.4637501 21.2909919,25.5618557 L17.0412371,25.5618557 L17.0412371,37.2308106 C17.0412371,38.733968 18.2649885,39.9587629 19.7668652,39.9587629 L37.2331348,39.9587629 C38.7350115,39.9587629 39.9587629,38.733968 39.9587629,37.2308106 L39.9587629,25.5618557 L35.7090081,25.5618557 C36.0872585,26.4637501 36.2875088,27.4547205 36.2875088,28.4902289 Z" id="Path"></path>
            </g>
        </g>
    </g>
</svg>