<?xml version="1.0" encoding="UTF-8"?>
<svg width="666px" height="410px" viewBox="0 0 666 410" version="1.1" xmlns="http://www.w3.org/2000/svg" xmlns:xlink="http://www.w3.org/1999/xlink">
    <title>info-section</title>
    <g id="▶️--Grid" stroke="none" stroke-width="1" fill="none" fill-rule="evenodd">
        <g id="info-section">
            <g id="Background_Complete" transform="translate(0.000000, 12.300000)" fill="#EBEBEB" fill-rule="nonzero">
                <g id="Group">
                    <path d="M650.018,253.535 L636.893,253.814 L630.232,253.926 C628.006,253.973 625.769,253.963 623.537,253.981 L623.093,253.984 L623.091,253.535 L623.037,242.345 L623.034,241.843 L623.536,241.845 L636.776,241.908 C641.189,241.913 645.603,242.02 650.016,242.072 L650.292,242.075 L650.289,242.345 C650.27,244.244 650.203,246.132 650.158,247.999 L650.018,253.535 Z M650.018,253.535 L649.876,247.881 C649.831,246.018 649.764,244.176 649.745,242.345 L650.018,242.618 C645.605,242.669 641.191,242.777 636.778,242.782 L623.538,242.845 L624.037,242.346 L623.983,253.536 L623.538,253.09 C625.72,253.108 627.896,253.098 630.084,253.145 L636.663,253.257 L650.018,253.535 Z" id="Shape"></path>
                    <path d="M635.246,267.645 L622.121,267.924 L615.46,268.036 C613.234,268.083 610.997,268.073 608.765,268.091 L608.321,268.095 L608.319,267.646 L608.265,256.456 L608.263,255.954 L608.765,255.956 L622.005,256.019 C626.418,256.024 630.832,256.131 635.245,256.183 L635.521,256.186 L635.518,256.456 C635.499,258.355 635.432,260.243 635.387,262.11 L635.246,267.645 Z M635.246,267.645 L635.104,261.991 C635.059,260.128 634.992,258.286 634.973,256.455 L635.246,256.728 C630.833,256.779 626.419,256.887 622.006,256.892 L608.766,256.955 L609.265,256.456 L609.211,267.646 L608.765,267.2 C610.947,267.218 613.123,267.208 615.311,267.255 L621.89,267.367 L635.246,267.645 Z" id="Shape"></path>
                    <path d="M664.79,267.645 L651.665,267.924 L645.004,268.036 C642.778,268.083 640.541,268.073 638.309,268.091 L637.865,268.095 L637.863,267.646 L637.809,256.456 L637.807,255.954 L638.309,255.956 L651.549,256.019 C655.962,256.024 660.376,256.131 664.789,256.183 L665.065,256.186 L665.062,256.456 C665.043,258.355 664.976,260.243 664.931,262.11 L664.79,267.645 Z M664.79,267.645 L664.648,261.991 C664.603,260.128 664.536,258.286 664.517,256.455 L664.79,256.728 C660.377,256.779 655.963,256.887 651.55,256.892 L638.31,256.955 L638.809,256.456 L638.755,267.646 L638.309,267.2 C640.491,267.218 642.667,267.208 644.855,267.255 L651.434,267.367 L664.79,267.645 Z" id="Shape"></path>
                    <path d="M272.438,120.378 L259.313,120.657 L252.652,120.769 C250.426,120.816 248.189,120.806 245.957,120.824 L245.513,120.828 L245.511,120.379 L245.457,109.189 L245.455,108.687 L245.957,108.689 L259.197,108.752 C263.61,108.757 268.024,108.865 272.437,108.916 L272.713,108.919 L272.71,109.189 C272.691,111.088 272.624,112.976 272.579,114.843 L272.438,120.378 Z M272.438,120.378 L272.296,114.724 C272.251,112.861 272.184,111.019 272.165,109.188 L272.438,109.461 C268.025,109.512 263.611,109.62 259.198,109.625 L245.958,109.688 L246.457,109.189 L246.403,120.379 L245.957,119.933 C248.139,119.951 250.315,119.941 252.503,119.988 L259.082,120.1 L272.438,120.378 Z" id="Shape"></path>
                    <path d="M257.667,134.488 L244.542,134.767 L237.881,134.879 C235.655,134.926 233.418,134.916 231.186,134.934 L230.742,134.938 L230.74,134.489 L230.686,123.299 L230.684,122.797 L231.186,122.799 L244.426,122.862 C248.839,122.867 253.253,122.975 257.666,123.026 L257.942,123.029 L257.939,123.299 C257.92,125.198 257.853,127.086 257.808,128.953 L257.667,134.488 Z M257.667,134.488 L257.525,128.834 C257.48,126.971 257.413,125.129 257.394,123.298 L257.667,123.571 C253.254,123.622 248.84,123.73 244.427,123.735 L231.187,123.798 L231.686,123.299 L231.632,134.489 L231.186,134.043 C233.368,134.061 235.544,134.051 237.732,134.098 L244.311,134.21 L257.667,134.488 Z" id="Shape"></path>
                    <path d="M287.21,134.488 L274.085,134.767 L267.424,134.879 C265.198,134.926 262.961,134.916 260.729,134.934 L260.285,134.938 L260.283,134.489 L260.229,123.299 L260.227,122.797 L260.729,122.799 L273.969,122.862 C278.382,122.867 282.796,122.975 287.209,123.026 L287.485,123.029 L287.482,123.299 C287.463,125.198 287.396,127.086 287.351,128.953 L287.21,134.488 Z M287.21,134.488 L287.068,128.834 C287.023,126.971 286.956,125.129 286.937,123.298 L287.21,123.571 C282.797,123.622 278.383,123.73 273.97,123.735 L260.73,123.798 L261.229,123.299 L261.175,134.489 L260.729,134.043 C262.911,134.061 265.087,134.051 267.275,134.098 L273.854,134.21 L287.21,134.488 Z" id="Shape"></path>
                    <path d="M56.526,194.418 L43.401,194.697 L36.74,194.809 C34.514,194.856 32.277,194.846 30.045,194.864 L29.601,194.867 L29.599,194.418 L29.545,183.228 L29.543,182.726 L30.045,182.728 L43.285,182.791 C47.698,182.796 52.112,182.904 56.525,182.955 L56.801,182.958 L56.798,183.228 C56.779,185.127 56.712,187.015 56.667,188.882 L56.526,194.418 Z M56.526,194.418 L56.384,188.764 C56.339,186.901 56.272,185.059 56.253,183.228 L56.526,183.501 C52.113,183.552 47.699,183.66 43.286,183.665 L30.046,183.728 L30.545,183.229 L30.491,194.419 L30.045,193.973 C32.227,193.991 34.403,193.981 36.591,194.028 L43.17,194.14 L56.526,194.418 Z" id="Shape"></path>
                    <path d="M495.508,120.37 L482.383,120.649 L475.722,120.761 C473.496,120.808 471.259,120.798 469.027,120.816 L468.583,120.819 L468.581,120.37 L468.527,109.18 L468.524,108.678 L469.026,108.68 L482.266,108.743 C486.679,108.748 491.093,108.856 495.506,108.907 L495.782,108.91 L495.779,109.18 C495.76,111.079 495.693,112.967 495.648,114.834 L495.508,120.37 Z M495.508,120.37 L495.366,114.716 C495.321,112.853 495.254,111.011 495.235,109.18 L495.508,109.453 C491.095,109.504 486.681,109.612 482.268,109.617 L469.028,109.68 L469.527,109.181 L469.473,120.371 L469.027,119.925 C471.209,119.943 473.385,119.933 475.573,119.98 L482.152,120.092 L495.508,120.37 Z" id="Shape"></path>
                    <path d="M648.487,11.691 L635.362,11.97 L628.701,12.082 C626.475,12.129 624.238,12.119 622.006,12.137 L621.562,12.141 L621.56,11.692 L621.506,0.502 L621.504,-1.42108547e-14 L622.006,0.002 L635.246,0.065 C639.659,0.07 644.073,0.177 648.486,0.229 L648.762,0.232 L648.759,0.502 C648.74,2.401 648.673,4.289 648.628,6.156 L648.487,11.691 Z M648.487,11.691 L648.345,6.037 C648.3,4.174 648.233,2.332 648.214,0.501 L648.487,0.774 C644.074,0.825 639.66,0.933 635.247,0.938 L622.007,1.001 L622.506,0.502 L622.452,11.692 L622.006,11.246 C624.188,11.264 626.364,11.254 628.552,11.301 L635.131,11.413 L648.487,11.691 Z" id="Shape"></path>
                    <path d="M663.258,25.8 L650.133,26.079 L643.472,26.191 C641.246,26.238 639.009,26.228 636.777,26.246 L636.333,26.25 L636.331,25.801 L636.277,14.611 L636.274,14.109 L636.776,14.111 L650.016,14.174 C654.429,14.179 658.843,14.287 663.256,14.338 L663.532,14.341 L663.529,14.611 C663.51,16.51 663.443,18.398 663.398,20.265 L663.258,25.8 Z M663.258,25.8 L663.116,20.146 C663.071,18.283 663.004,16.441 662.985,14.61 L663.258,14.883 C658.845,14.934 654.431,15.042 650.018,15.047 L636.778,15.11 L637.277,14.611 L637.223,25.801 L636.777,25.355 C638.959,25.373 641.135,25.363 643.323,25.41 L649.902,25.522 L663.258,25.8 Z" id="Shape"></path>
                    <path d="M26.983,11.702 L13.858,11.981 L7.197,12.093 C4.971,12.14 2.734,12.13 0.502,12.148 L0.058,12.151 L0.056,11.702 L0.002,0.512 L1.42108547e-14,0.011 L0.502,0.013 L13.742,0.076 C18.155,0.081 22.569,0.189 26.982,0.24 L27.258,0.243 L27.255,0.513 C27.236,2.412 27.169,4.3 27.124,6.167 L26.983,11.702 Z M26.983,11.702 L26.841,6.048 C26.796,4.185 26.729,2.343 26.71,0.512 L26.983,0.785 C22.57,0.836 18.156,0.944 13.743,0.949 L0.503,1.012 L1.002,0.513 L0.948,11.703 L0.502,11.257 C2.684,11.275 4.86,11.265 7.048,11.312 L13.627,11.424 L26.983,11.702 Z" id="Shape"></path>
                </g>
                <g id="Group" transform="translate(9.825000, 13.075835)">
                    <path d="M639.442,116.052165 L645.329,106.561165 L642.422,104.760165 C641.567,104.230165 641.104,103.264165 641.19,102.262165 C641.238,101.708165 641.255,101.151165 641.243,100.592165 C641.221,99.5891652 641.745,98.6561652 642.629,98.1821652 L645.642,96.5661652 L640.362,86.7211652 L637.35,88.3371652 C636.466,88.8111652 635.399,88.7311652 634.576,88.1581652 C634.117,87.8391652 633.643,87.5451652 633.156,87.2781652 C632.274,86.7951652 631.725,85.8741652 631.757,84.8701652 L631.865,81.4521652 L620.702,81.1051652 L620.599,84.5351652 C620.569,85.5411652 619.952,86.4161652 619.043,86.8461652 C618.796,86.9631652 618.551,87.0861652 618.309,87.2161652 C618.067,87.3461652 617.828,87.4821652 617.595,87.6231652 C616.738,88.1411652 615.673,88.1711652 614.822,87.6431652 L611.894,85.8291652 L606.007,95.3201652 L608.919,97.1271652 C609.773,97.6581652 610.236,98.6251652 610.149,99.6271652 C610.101,100.178165 610.083,100.734165 610.094,101.290165 C610.115,102.291165 609.591,103.224165 608.708,103.697165 L605.694,105.313165 L610.974,115.158165 L613.988,113.542165 C614.871,113.069165 615.937,113.148165 616.76,113.719165 C617.217,114.036165 617.69,114.328165 618.176,114.593165 C619.059,115.075165 619.609,115.996165 619.578,117.001165 L619.473,120.426165 L630.636,120.773165 L630.743,117.346165 C630.774,116.344165 631.389,115.472165 632.295,115.044165 C632.543,114.927165 632.79,114.802165 633.035,114.671165 C633.277,114.541165 633.516,114.405165 633.75,114.264165 C634.612,113.744165 635.681,113.714165 636.537,114.245165 L639.442,116.052165 Z M629.991,109.004165 C625.539,111.392165 619.999,109.719165 617.611,105.267165 C615.223,100.815165 616.891,95.2671652 621.343,92.8791652 C625.795,90.4911652 631.347,92.1671652 633.735,96.6191652 C636.123,101.072165 634.443,106.616165 629.991,109.004165 Z" id="Shape"></path>
                    <path d="M105.028,314.133165 L101.118,307.356165 L99.044,308.554165 C98.434,308.906165 97.684,308.873165 97.094,308.488165 C96.768,308.275165 96.43,308.080165 96.081,307.902165 C95.455,307.584165 95.052,306.951165 95.052,306.249165 L95.052,303.854165 L87.225,303.854165 L87.225,306.249165 C87.225,306.951165 86.822,307.584165 86.196,307.902165 C85.847,308.079165 85.509,308.275165 85.183,308.488165 C84.593,308.872165 83.843,308.907165 83.233,308.554165 L81.159,307.356165 L77.249,314.133165 L79.332,315.332165 C79.943,315.684165 80.279,316.354165 80.243,317.058165 C80.233,317.249165 80.228,317.441165 80.228,317.634165 C80.228,317.827165 80.233,318.019165 80.243,318.210165 C80.279,318.911165 79.945,319.578165 79.338,319.929165 L77.249,321.136165 L81.159,327.913165 L83.239,326.714165 C83.849,326.362165 84.6,326.397165 85.19,326.782165 C85.515,326.994165 85.851,327.189165 86.199,327.366165 C86.824,327.685165 87.226,328.317165 87.226,329.019165 L87.226,331.415165 L95.053,331.415165 L95.053,329.019165 C95.053,328.317165 95.455,327.685165 96.08,327.366165 C96.427,327.189165 96.764,326.994165 97.089,326.782165 C97.679,326.397165 98.429,326.362165 99.04,326.714165 L101.12,327.913165 L105.03,321.136165 L102.949,319.936165 C102.34,319.585165 102.006,318.917165 102.041,318.215165 C102.051,318.023165 102.055,317.830165 102.055,317.635165 C102.055,317.442165 102.05,317.250165 102.041,317.059165 C102.005,316.355165 102.341,315.684165 102.952,315.332165 L105.028,314.133165 Z M97.547,317.635165 C97.547,321.174165 94.68,324.041165 91.141,324.041165 C87.602,324.041165 84.729,321.175165 84.729,317.635165 C84.729,314.095165 87.602,311.223165 91.141,311.223165 C94.68,311.222165 97.547,314.095165 97.547,317.635165 Z" id="Shape"></path>
                    <g transform="translate(-0.000000, 230.438165)">
                        <path d="M37.72,7.031 C20.888,7.031 7.249,20.67 7.249,37.502 C7.249,54.327 20.888,67.973 37.72,67.973 C54.545,67.973 68.191,54.327 68.191,37.502 C68.191,20.67 54.545,7.031 37.72,7.031 Z M37.72,51.729 C29.859,51.729 23.486,45.363 23.486,37.502 C23.486,29.641 29.859,23.268 37.72,23.268 C45.581,23.268 51.954,29.641 51.954,37.502 C51.954,45.363 45.581,51.729 37.72,51.729 Z" id="Shape"></path>
                        <polygon id="Path" points="43.578 8.294 31.86 8.294 32.508 0 42.93 0"></polygon>
                        <polygon id="Path" points="21.275 12.242 12.989 20.528 7.582 14.205 14.951 6.835"></polygon>
                        <polygon id="Path" points="8.295 30.805 8.295 42.523 -7.10542736e-15 41.875 -7.10542736e-15 31.453"></polygon>
                        <polygon id="Path" points="12.243 53.109 20.529 61.395 14.206 66.802 6.836 59.432"></polygon>
                        <polygon id="Path" points="30.806 66.088 42.524 66.088 41.876 74.383 31.454 74.383"></polygon>
                        <polygon id="Path" points="53.11 62.14 61.396 53.854 66.803 60.177 59.433 67.547"></polygon>
                        <polygon id="Path" points="66.089 43.577 66.089 31.859 74.384 32.507 74.384 42.929"></polygon>
                        <polygon id="Path" points="62.141 21.274 53.855 12.988 60.178 7.581 67.548 14.95"></polygon>
                    </g>
                    <g transform="translate(29.782000, 0.000000)" id="Path">
                        <path d="M11.908,54.2481652 C11.908,52.9991652 12.074,49.6681652 12.074,48.2531652 C12.074,42.1741652 9.909,39.4251652 4.247,39.2591652 C1.582,39.0931652 -1.42108547e-14,37.5111652 -1.42108547e-14,35.2631652 C-1.42108547e-14,33.0131652 1.581,31.4321652 4.247,31.2661652 C9.909,31.0161652 12.074,28.3511652 12.074,22.1891652 C12.074,20.7741652 11.908,17.4431652 11.908,16.1941652 C11.908,8.11616517 15.322,2.95316517 28.229,0.123165174 C30.81,-0.459834826 32.809,1.12216517 32.809,3.53716517 C32.809,5.53616517 31.477,6.61816517 30.478,6.95116517 C22.402,9.44916517 21.234,12.0311652 21.234,17.6931652 C21.234,19.3591652 21.402,22.1061652 21.402,23.8561652 C21.402,30.3511652 18.238,33.5161652 12.74,35.2651652 C18.32,37.0961652 21.402,40.1771652 21.402,46.6721652 C21.402,48.4211652 21.234,51.1681652 21.234,52.8341652 C21.234,58.4961652 22.401,61.0781652 30.478,63.5761652 C31.477,63.9091652 32.809,64.9911652 32.809,66.9901652 C32.809,69.4061652 30.81,70.9871652 28.229,70.4051652 C15.322,67.5721652 11.908,62.4091652 11.908,54.2481652 Z"></path>
                        <path d="M60.705,16.1931652 C60.705,17.4421652 60.539,20.7731652 60.539,22.1881652 C60.539,28.3501652 62.787,31.0161652 68.451,31.2651652 C71.032,31.4311652 72.615,33.0131652 72.615,35.2621652 C72.615,37.5101652 71.032,39.0921652 68.451,39.2581652 C62.788,39.4241652 60.539,42.1731652 60.539,48.2521652 C60.539,49.6671652 60.705,52.9981652 60.705,54.2471652 C60.705,62.4081652 57.291,67.5711652 44.384,70.4031652 C41.803,70.9851652 39.805,69.4041652 39.805,66.9881652 C39.805,64.9891652 41.137,63.9071652 42.219,63.5741652 C50.214,61.0761652 51.38,58.4941652 51.38,52.8321652 C51.38,51.1661652 51.213,48.4191652 51.213,46.6701652 C51.213,40.1751652 54.378,37.0101652 59.873,35.2631652 C54.293,33.4311652 51.213,30.3491652 51.213,23.8541652 C51.213,22.1051652 51.38,19.3581652 51.38,17.6911652 C51.38,12.0291652 50.214,9.44716517 42.219,6.94916517 C41.137,6.61716517 39.805,5.53416517 39.805,3.53516517 C39.805,1.12116517 41.804,-0.461834826 44.384,0.121165174 C57.291,2.95216517 60.705,8.11516517 60.705,16.1931652 Z"></path>
                    </g>
                </g>
            </g>
            <g id="Floor" transform="translate(8.366000, 408.365000)" fill="#263238" fill-rule="nonzero">
                <polygon id="Path" points="-2.84217094e-14 0.5 81.07 0.257 162.14 0.168 324.28 0.001 486.42 0.167 567.49 0.255 648.56 0.5 567.49 0.744 486.42 0.832 324.28 0.999 162.14 0.831 81.07 0.743"></polygon>
            </g>
            <g id="Device" transform="translate(57.755000, 97.078000)" fill-rule="nonzero">
                <g id="Group">
                    <rect id="Rectangle" fill="#C7C7C7" x="0" y="291.763" width="549.781" height="20.024"></rect>
                    <rect id="Rectangle" fill="#DBDBDB" x="56.808" y="0" width="436.165" height="291.762"></rect>
                    <rect id="Rectangle" fill="#263238" x="59.978" y="3.559" width="429.825" height="284.645"></rect>
                    <g transform="translate(79.011000, 21.856000)">
                        <rect id="Rectangle" fill="#28343D" x="0" y="0" width="391.76" height="248.051"></rect>
                        <g transform="translate(0.000000, 9.545000)">
                            <rect id="Rectangle" fill="#37474F" x="0" y="0" width="84.003" height="238.506"></rect>
                            <rect id="Rectangle" fill="#455A64" x="0" y="0" width="8.986" height="238.506"></rect>
                            <g transform="translate(8.986000, 11.838000)">
                                <rect id="Rectangle" fill="#218C74" x="0" y="69.734" width="75.017" height="3.55"></rect>
                                <g transform="translate(4.636000, 0.000000)" fill="#FFFFFF">
                                    <rect id="Rectangle" x="3.723" y="0" width="29.167" height="1.586"></rect>
                                    <polygon id="Path" points="0 0.289 1.879 0.289 0.939 1.297"></polygon>
                                </g>
                                <g transform="translate(8.359000, 5.744000)" fill="#FFFFFF">
                                    <rect id="Rectangle" x="2.349" y="0.147" width="3.866" height="1.586"></rect>
                                    <polygon id="Path" points="2.84217094e-14 1.88 2.84217094e-14 0 1.009 0.94"></polygon>
                                </g>
                                <g transform="translate(7.924000, 11.781000)" fill="#FFFFFF">
                                    <rect id="Rectangle" x="2.784" y="0" width="3.866" height="1.586"></rect>
                                    <polygon id="Path" points="-2.84217094e-14 0.289 1.88 0.289 0.94 1.298"></polygon>
                                </g>
                                <g transform="translate(7.924000, 17.672000)" fill="#FFFFFF">
                                    <rect id="Rectangle" x="2.784" y="0" width="3.866" height="1.586"></rect>
                                    <polygon id="Path" points="-2.84217094e-14 0.289 1.88 0.289 0.94 1.298"></polygon>
                                </g>
                                <g transform="translate(10.708000, 23.415000)" fill="#FFFFFF">
                                    <rect id="Rectangle" x="2.349" y="0.147" width="3.866" height="1.586"></rect>
                                    <polygon id="Path" points="0 1.88 0 0 1.009 0.94"></polygon>
                                </g>
                                <g transform="translate(13.057000, 29.314000)" fill="#FFFFFF">
                                    <rect id="Rectangle" x="2.349" y="0.147" width="3.866" height="1.586"></rect>
                                    <polygon id="Path" points="0 1.88 0 0 1.009 0.94"></polygon>
                                </g>
                                <g transform="translate(13.057000, 88.213000)" fill="#FFFFFF">
                                    <rect id="Rectangle" x="2.349" y="0.147" width="3.866" height="1.586"></rect>
                                    <polygon id="Path" points="0 1.88 0 0 1.009 0.94"></polygon>
                                </g>
                                <g transform="translate(15.406000, 35.195000)" fill="#FFFFFF">
                                    <rect id="Rectangle" x="2.35" y="0.147" width="3.866" height="1.586"></rect>
                                    <polygon id="Path" points="0 1.88 0 0 1.009 0.94"></polygon>
                                </g>
                                <g transform="translate(15.406000, 82.323000)" fill="#FFFFFF">
                                    <rect id="Rectangle" x="2.35" y="0.146" width="3.866" height="1.586"></rect>
                                    <polygon id="Path" points="0 1.879 0 0 1.009 0.94"></polygon>
                                </g>
                                <g transform="translate(17.756000, 41.083000)" fill="#FFFFFF">
                                    <rect id="Rectangle" x="2.349" y="0.147" width="3.866" height="1.586"></rect>
                                    <polygon id="Path" points="2.84217094e-14 1.88 2.84217094e-14 0 1.008 0.94"></polygon>
                                </g>
                                <g transform="translate(17.756000, 76.432000)" fill="#FFFFFF">
                                    <rect id="Rectangle" x="2.349" y="0.147" width="3.866" height="1.586"></rect>
                                    <polygon id="Path" points="2.84217094e-14 1.88 2.84217094e-14 0 1.008 0.94"></polygon>
                                </g>
                                <g transform="translate(20.105000, 46.983000)" fill="#FFFFFF">
                                    <rect id="Rectangle" x="2.349" y="0.147" width="3.866" height="1.586"></rect>
                                    <polygon id="Path" points="0 1.88 0 0 1.008 0.94"></polygon>
                                </g>
                                <g transform="translate(20.105000, 53.016000)" fill="#FFFFFF">
                                    <rect id="Rectangle" x="2.784" y="0" width="3.866" height="1.586"></rect>
                                    <polygon id="Path" points="0 0.289 1.879 0.289 0.94 1.298"></polygon>
                                </g>
                                <g transform="translate(20.105000, 58.907000)" fill="#FFFFFF">
                                    <rect id="Rectangle" x="2.784" y="0" width="3.866" height="1.586"></rect>
                                    <polygon id="Path" points="0 0.289 1.879 0.289 0.94 1.297"></polygon>
                                </g>
                                <g transform="translate(20.105000, 64.797000)" fill="#FFFFFF">
                                    <rect id="Rectangle" x="2.784" y="0" width="3.866" height="1.586"></rect>
                                    <polygon id="Path" points="0 0.289 1.879 0.289 0.94 1.298"></polygon>
                                </g>
                                <g transform="translate(20.105000, 70.688000)" fill="#FFFFFF">
                                    <rect id="Rectangle" x="2.784" y="0" width="3.866" height="1.586"></rect>
                                    <polygon id="Path" points="0 0.289 1.879 0.289 0.94 1.297"></polygon>
                                </g>
                                <g transform="translate(8.359000, 94.109000)" fill="#FFFFFF">
                                    <rect id="Rectangle" x="2.349" y="0.146" width="3.866" height="1.586"></rect>
                                    <polygon id="Path" points="2.84217094e-14 1.879 2.84217094e-14 0 1.009 0.939"></polygon>
                                </g>
                                <g transform="translate(7.924000, 100.146000)" fill="#FFFFFF">
                                    <rect id="Rectangle" x="2.784" y="0" width="3.866" height="1.586"></rect>
                                    <polygon id="Path" points="-2.84217094e-14 0.289 1.88 0.289 0.94 1.298"></polygon>
                                </g>
                                <g transform="translate(7.924000, 106.037000)" fill="#FFFFFF">
                                    <rect id="Rectangle" x="2.784" y="0" width="3.866" height="1.586"></rect>
                                    <polygon id="Path" points="-2.84217094e-14 0.288 1.88 0.288 0.94 1.297"></polygon>
                                </g>
                                <g transform="translate(10.708000, 111.780000)" fill="#FFFFFF">
                                    <rect id="Rectangle" x="2.349" y="0.147" width="3.866" height="1.586"></rect>
                                    <polygon id="Path" points="0 1.88 0 0 1.009 0.94"></polygon>
                                </g>
                                <g transform="translate(13.057000, 117.679000)" fill="#FFFFFF">
                                    <rect id="Rectangle" x="2.349" y="0.147" width="3.866" height="1.586"></rect>
                                    <polygon id="Path" points="0 1.88 0 0 1.009 0.94"></polygon>
                                </g>
                                <g transform="translate(13.057000, 123.571000)" fill="#FFFFFF">
                                    <rect id="Rectangle" x="2.349" y="0.146" width="3.866" height="1.586"></rect>
                                    <polygon id="Path" points="0 1.88 0 0 1.009 0.94"></polygon>
                                </g>
                                <g transform="translate(13.057000, 129.604000)" fill="#FFFFFF">
                                    <rect id="Rectangle" x="2.785" y="0" width="3.866" height="1.586"></rect>
                                    <polygon id="Path" points="0 0.289 1.88 0.289 0.94 1.297"></polygon>
                                </g>
                                <g transform="translate(13.057000, 135.495000)" fill="#FFFFFF">
                                    <rect id="Rectangle" x="2.785" y="0" width="3.866" height="1.586"></rect>
                                    <polygon id="Path" points="0 0.288 1.88 0.288 0.94 1.297"></polygon>
                                </g>
                                <g transform="translate(13.057000, 141.385000)" fill="#FFFFFF">
                                    <rect id="Rectangle" x="2.785" y="0" width="3.866" height="1.586"></rect>
                                    <polygon id="Path" points="0 0.289 1.88 0.289 0.94 1.298"></polygon>
                                </g>
                                <g transform="translate(13.057000, 147.276000)" fill="#FFFFFF">
                                    <rect id="Rectangle" x="2.785" y="0" width="3.866" height="1.586"></rect>
                                    <polygon id="Path" points="0 0.289 1.88 0.289 0.94 1.297"></polygon>
                                </g>
                            </g>
                        </g>
                        <g>
                            <rect id="Rectangle" fill="#55EFC4" x="0" y="0" width="391.76" height="9.545"></rect>
                            <g transform="translate(5.374000, 2.966000)" id="Path">
                                <path d="M3.612,1.806 C3.612,2.803 2.803,3.612 1.806,3.612 C0.809,3.612 0,2.803 0,1.806 C0,0.809 0.809,0 1.806,0 C2.803,0 3.612,0.809 3.612,1.806 Z" fill="#C7C7C7"></path>
                                <path d="M10.986,1.806 C10.986,2.803 10.177,3.612 9.18,3.612 C8.182,3.612 7.374,2.803 7.374,1.806 C7.374,0.809 8.182,0 9.18,0 C10.178,0 10.986,0.809 10.986,1.806 Z" fill="#FFFFFF"></path>
                                <path d="M18.361,1.806 C18.361,2.803 17.552,3.612 16.555,3.612 C15.558,3.612 14.749,2.803 14.749,1.806 C14.749,0.809 15.558,0 16.555,0 C17.552,0 18.361,0.809 18.361,1.806 Z" fill="#455A64"></path>
                            </g>
                        </g>
                        <g transform="translate(103.737000, 30.430250)">
                            <g transform="translate(0.000000, 21.521750)" id="Rectangle">
                                <rect fill="#EBEBEB" x="0" y="0" width="7.068" height="1.735"></rect>
                                <rect fill="#EBEBEB" x="15.407" y="0" width="156.671" height="1.735"></rect>
                                <rect fill="#FFC727" x="176.422" y="0" width="13.425" height="1.735"></rect>
                                <rect fill="#EBEBEB" x="197.906" y="40.981" width="45.313" height="1.734"></rect>
                                <rect fill="#A6A6A6" x="192.765" y="0" width="66.519" height="1.735"></rect>
                                <rect fill="#EBEBEB" x="0" y="8.196" width="7.068" height="1.735"></rect>
                                <rect fill="#A6A6A6" x="22.298" y="8.196" width="53.206" height="1.735"></rect>
                                <rect fill="#A6A6A6" x="174.592" y="40.981" width="20.126" height="1.734"></rect>
                                <rect fill="#A6A6A6" x="15.407" y="32.785" width="50.82" height="1.734"></rect>
                                <rect fill="#00CEC9" x="22.298" y="16.393" width="35.652" height="1.735"></rect>
                                <rect fill="#A6A6A6" x="185.399" y="24.589" width="67.54" height="1.734"></rect>
                                <rect fill="#A6A6A6" x="104.539" y="64.815" width="67.539" height="1.734"></rect>
                                <rect fill="#A6A6A6" x="61.906" y="16.393" width="132.53" height="1.735"></rect>
                                <rect fill="#00CEC9" x="15.407" y="40.981" width="154.584" height="1.734"></rect>
                                <rect fill="#EBEBEB" x="78.844" y="8.196" width="109.505" height="1.735"></rect>
                                <rect fill="#EBEBEB" x="200.098" y="16.393" width="22.924" height="1.735"></rect>
                                <rect fill="#EBEBEB" x="0" y="16.393" width="7.068" height="1.735"></rect>
                                <rect fill="#A6A6A6" x="0" y="24.589" width="7.068" height="1.734"></rect>
                                <rect fill="#EBEBEB" x="15.407" y="24.589" width="41.771" height="1.734"></rect>
                                <rect fill="#EBEBEB" x="22.298" y="49.177" width="41.771" height="1.735"></rect>
                                <rect fill="#FFC727" x="175.783" y="57.373" width="58.315" height="1.735"></rect>
                                <rect fill="#EBEBEB" x="60.071" y="57.373" width="112.059" height="1.735"></rect>
                                <rect fill="#A6A6A6" x="22.298" y="57.373" width="31.398" height="1.735"></rect>
                                <rect fill="#EBEBEB" x="69.103" y="32.785" width="120.744" height="1.734"></rect>
                                <rect fill="#FFC727" x="192.765" y="32.785" width="72.037" height="1.734"></rect>
                                <rect fill="#FFC727" x="61.425" y="24.589" width="120.689" height="1.734"></rect>
                                <rect fill="#EBEBEB" x="0" y="32.785" width="7.068" height="1.734"></rect>
                                <rect fill="#EBEBEB" x="0" y="40.981" width="7.068" height="1.734"></rect>
                                <rect fill="#A6A6A6" x="0" y="49.177" width="7.068" height="1.735"></rect>
                                <rect fill="#EBEBEB" x="0" y="57.373" width="7.068" height="1.735"></rect>
                                <rect fill="#EBEBEB" x="0" y="64.815" width="7.068" height="1.734"></rect>
                                <rect fill="#EBEBEB" x="15.407" y="64.815" width="82.874" height="1.734"></rect>
                                <rect fill="#EBEBEB" x="0" y="73.011" width="7.068" height="1.735"></rect>
                                <rect fill="#A6A6A6" x="22.298" y="73.011" width="53.206" height="1.735"></rect>
                                <rect fill="#A6A6A6" x="15.407" y="97.599" width="50.82" height="1.734"></rect>
                                <rect fill="#00CEC9" x="22.298" y="81.207" width="35.652" height="1.735"></rect>
                                <rect fill="#00CEC9" x="103.943" y="113.991" width="35.652" height="1.735"></rect>
                                <rect fill="#00CEC9" x="22.298" y="130.383" width="35.652" height="1.735"></rect>
                                <rect fill="#A6A6A6" x="61.906" y="81.207" width="132.53" height="1.735"></rect>
                                <rect fill="#00CEC9" x="15.407" y="105.795" width="154.584" height="1.734"></rect>
                                <rect fill="#EBEBEB" x="78.844" y="73.011" width="109.505" height="1.735"></rect>
                                <rect fill="#EBEBEB" x="188.657" y="89.403" width="22.882" height="1.735"></rect>
                                <rect fill="#EBEBEB" x="0" y="81.207" width="7.068" height="1.735"></rect>
                                <rect fill="#A6A6A6" x="0" y="89.403" width="7.068" height="1.734"></rect>
                                <rect fill="#EBEBEB" x="15.407" y="89.403" width="41.771" height="1.734"></rect>
                                <rect fill="#EBEBEB" x="69.103" y="97.599" width="120.744" height="1.734"></rect>
                                <rect fill="#FFC727" x="61.425" y="89.403" width="120.689" height="1.734"></rect>
                                <rect fill="#EBEBEB" x="0" y="97.599" width="7.068" height="1.734"></rect>
                                <rect fill="#EBEBEB" x="0" y="113.991" width="7.068" height="1.735"></rect>
                                <rect fill="#EBEBEB" x="15.407" y="113.991" width="82.874" height="1.735"></rect>
                                <rect fill="#EBEBEB" x="0" y="122.187" width="7.068" height="1.735"></rect>
                                <rect fill="#A6A6A6" x="22.298" y="122.187" width="53.206" height="1.735"></rect>
                                <rect fill="#A6A6A6" x="15.407" y="146.776" width="50.82" height="1.735"></rect>
                                <rect fill="#A6A6A6" x="61.906" y="130.383" width="132.53" height="1.735"></rect>
                                <rect fill="#EBEBEB" x="188.657" y="138.579" width="22.882" height="1.735"></rect>
                                <rect fill="#EBEBEB" x="0" y="130.383" width="7.068" height="1.735"></rect>
                                <rect fill="#A6A6A6" x="0" y="138.579" width="7.068" height="1.735"></rect>
                                <rect fill="#EBEBEB" x="15.407" y="138.579" width="41.771" height="1.735"></rect>
                                <rect fill="#EBEBEB" x="69.103" y="146.776" width="120.744" height="1.735"></rect>
                                <rect fill="#00CEC9" x="61.425" y="138.579" width="120.689" height="1.735"></rect>
                                <rect fill="#EBEBEB" x="0" y="146.776" width="7.068" height="1.735"></rect>
                            </g>
                            <g transform="translate(0.582000, 0.000000)" fill="#55EFC4" id="Path">
                                <path d="M3.784,5.68775 C4.027,5.93975 4.027,6.31775 3.784,6.56075 C3.658,6.67675 3.513,6.73475 3.358,6.73475 C3.193,6.73475 3.037,6.67675 2.912,6.56075 L0.186,3.79575 C0.156,3.78675 0.147,3.76675 0.137,3.73775 C0.128,3.72775 0.107,3.71775 0.107,3.71775 C0.088,3.68875 0.088,3.66875 0.078,3.63975 C0.058,3.63075 0.048,3.61075 0.048,3.60075 C0.038,3.58175 0.038,3.55175 0.029,3.54275 C0.029,3.51375 0.009,3.50475 0.009,3.49375 C0.009,3.46475 0.009,3.44475 0.009,3.42575 C0.009,3.40575 0,3.39675 0,3.36775 C0,3.35775 0.009,3.32875 0.009,3.31875 C0.009,3.29875 0.009,3.26975 0.009,3.25075 C0.009,3.23075 0.029,3.22175 0.029,3.21175 C0.038,3.18275 0.038,3.16375 0.048,3.13375 C0.048,3.12475 0.057,3.12475 0.057,3.11475 C0.077,3.08575 0.087,3.04675 0.106,3.02775 C0.106,3.02775 0.106,3.00775 0.126,3.00775 C0.135,2.98775 0.154,2.95875 0.184,2.93975 L2.91,0.17475 C3.152,-0.05825 3.55,-0.05825 3.782,0.17475 C4.025,0.41675 4.025,0.80475 3.782,1.04775 L1.484,3.36675 L3.784,5.68775 Z"></path>
                                <path d="M6.255,5.99875 L8.632,0.34275 C8.748,0.07175 9.058,-0.05525 9.339,0.06175 C9.601,0.16775 9.727,0.48875 9.611,0.75075 L7.234,6.41675 C7.146,6.62075 6.943,6.73675 6.739,6.73675 C6.681,6.73675 6.604,6.72775 6.545,6.69875 C6.264,6.59075 6.138,6.27075 6.255,5.99875 Z"></path>
                                <path d="M14.305,3.71875 C14.305,3.71875 14.305,3.72875 14.295,3.72875 C14.275,3.74875 14.256,3.77775 14.226,3.79675 L11.5,6.56175 C11.384,6.67775 11.219,6.73575 11.063,6.73575 C10.898,6.73575 10.753,6.67775 10.627,6.56175 C10.384,6.31875 10.384,5.94075 10.627,5.68875 L12.925,3.37075 L10.627,1.05175 C10.384,0.80875 10.384,0.42075 10.627,0.17875 C10.86,-0.05425 11.257,-0.05425 11.499,0.17875 L14.225,2.94375 C14.255,2.96275 14.274,2.99175 14.294,3.01175 C14.304,3.01175 14.304,3.03175 14.304,3.03175 C14.323,3.06975 14.342,3.08975 14.353,3.11875 C14.353,3.12875 14.362,3.12875 14.362,3.13775 C14.372,3.16775 14.372,3.18675 14.391,3.22575 C14.391,3.23475 14.4,3.23475 14.4,3.25475 C14.4,3.27375 14.4,3.30275 14.4,3.32275 C14.4,3.33175 14.411,3.36075 14.411,3.37175 C14.411,3.38075 14.4,3.40975 14.4,3.41975 C14.4,3.44875 14.4,3.46875 14.4,3.49775 C14.4,3.50775 14.391,3.50775 14.391,3.51775 C14.372,3.55675 14.372,3.58575 14.362,3.60475 C14.362,3.61475 14.353,3.61475 14.353,3.63375 C14.343,3.65075 14.324,3.67975 14.305,3.71875 Z"></path>
                            </g>
                        </g>
                    </g>
                </g>
            </g>
            <g id="Group" transform="translate(47.659000, 67.750000)">
                <g transform="translate(15.861000, 37.975000)">
                    <polygon id="Path" fill="#FFC727" fill-rule="nonzero" points="63.371 66.6 12.383 66.6 12.383 2.84217094e-14 50.826 2.84217094e-14 63.371 12.546"></polygon>
                    <polygon id="Path" fill="#FFFFFF" fill-rule="nonzero" opacity="0.6" points="63.371 66.6 12.383 66.6 12.383 2.84217094e-14 50.826 2.84217094e-14 63.371 12.546"></polygon>
                    <polygon id="Path" fill="#FFC727" fill-rule="nonzero" points="63.371 12.546 50.826 12.546 50.826 2.84217094e-14"></polygon>
                    <g transform="translate(19.930000, 15.171000)">
                        <path d="M4.24197843,8.298 C4.249,10.398 5.957,12.095 8.057,12.0890159 C10.157,12.082 11.855,10.374 11.8480216,8.274 C11.841,6.174 10.133,4.477 8.033,4.48298414 C5.933,4.49 4.235,6.198 4.24197843,8.298 Z" id="Path" fill="#FFC727" fill-rule="nonzero"></path>
                        <polygon id="Path" fill="#FFC727" fill-rule="nonzero" points="10.108 25.188 35.895 25.188 23.001 9.447"></polygon>
                        <g transform="translate(0.000000, 14.938000)" fill-rule="nonzero" id="Path">
                            <polygon fill="#FFC727" points="0 10.25 21.289 10.25 10.645 0"></polygon>
                            <polygon fill="#000000" opacity="0.1" points="0 10.25 21.289 10.25 10.645 0"></polygon>
                        </g>
                        <rect id="Rectangle" stroke="#FFC727" stroke-width="2" x="0" y="0" width="35.895" height="25.188"></rect>
                    </g>
                    <g transform="translate(-0.000000, 43.074000)" fill-rule="nonzero">
                        <rect id="Rectangle" fill="#455A64" x="0" y="0" width="36.625" height="15.157"></rect>
                        <g transform="translate(4.571000, 4.130000)" fill="#FFFFFF" id="Path">
                            <polygon points="6.18 0.001 6.18 7.351 4.762 7.351 4.762 4.214 1.429 4.214 1.429 7.351 0 7.351 0 0.001 1.429 0.001 1.429 2.972 4.762 2.972 4.762 0.001"></polygon>
                            <polygon points="13.209 1.253 10.859 1.253 10.859 7.351 9.441 7.351 9.441 1.253 7.091 1.253 7.091 0 13.209 0"></polygon>
                            <polygon points="20.114 7.351 20.114 2.485 18.219 6.108 17.444 6.108 15.549 2.485 15.549 7.351 14.12 7.351 14.12 0.001 15.652 0.001 17.827 4.183 20.022 0.001 21.543 0.001 21.543 7.351 20.114 7.351"></polygon>
                            <polygon points="23.075 7.351 23.075 0.001 24.504 0.001 24.504 6.098 28.251 6.098 28.251 7.351"></polygon>
                        </g>
                    </g>
                </g>
                <g transform="translate(15.794000, 118.800000)">
                    <polygon id="Path" fill="#FFC727" fill-rule="nonzero" points="63.438 66.671 12.396 66.671 12.396 2.84217094e-14 50.88 2.84217094e-14 63.438 12.559"></polygon>
                    <polygon id="Path" fill="#FFFFFF" fill-rule="nonzero" opacity="0.6" points="63.438 66.671 12.396 66.671 12.396 2.84217094e-14 50.88 2.84217094e-14 63.438 12.559"></polygon>
                    <polygon id="Path" fill="#FFC727" fill-rule="nonzero" points="63.438 12.559 50.88 12.559 50.88 2.84217094e-14"></polygon>
                    <g transform="translate(19.951000, 15.187000)">
                        <path d="M4.24697845,8.307 C4.254,10.409 5.964,12.108 8.066,12.1020158 C10.169,12.095 11.868,10.385 11.8610216,8.283 C11.854,6.181 10.145,4.482 8.042,4.48798416 C5.939,4.495 4.24,6.205 4.24697845,8.307 Z" id="Path" fill="#FFC727" fill-rule="nonzero"></path>
                        <polygon id="Path" fill="#FFC727" fill-rule="nonzero" points="10.119 25.215 35.933 25.215 23.026 9.458"></polygon>
                        <g transform="translate(0.000000, 14.954000)" fill-rule="nonzero" id="Path">
                            <polygon fill="#FFC727" points="1.42108547e-14 10.261 21.312 10.261 10.656 -2.84217094e-14"></polygon>
                            <polygon fill="#000000" opacity="0.1" points="1.42108547e-14 10.261 21.312 10.261 10.656 -2.84217094e-14"></polygon>
                        </g>
                        <rect id="Rectangle" stroke="#FFC727" stroke-width="2" x="2.84217094e-14" y="2.84217094e-14" width="35.933" height="25.214"></rect>
                    </g>
                    <g transform="translate(0.000000, 43.120000)" fill-rule="nonzero">
                        <rect id="Rectangle" fill="#455A64" x="-1.42108547e-14" y="0" width="36.664" height="15.173"></rect>
                        <g transform="translate(8.659000, 4.082000)" fill="#FFFFFF" id="Path">
                            <path d="M-1.42108547e-14,3.68 C-1.42108547e-14,3.231 0.081,2.787 0.244,2.348 C0.406,1.909 0.643,1.517 0.954,1.172 C1.265,0.827 1.645,0.547 2.094,0.333 C2.543,0.119 3.054,0.012 3.628,0.012 C4.305,0.012 4.891,0.161 5.385,0.458 C5.879,0.755 6.247,1.142 6.489,1.619 L5.391,2.375 C5.294,2.168 5.177,1.993 5.039,1.852 C4.901,1.71 4.752,1.598 4.593,1.515 C4.434,1.432 4.268,1.371 4.095,1.333 C3.922,1.295 3.753,1.276 3.587,1.276 C3.228,1.276 2.915,1.349 2.649,1.494 C2.383,1.639 2.162,1.827 1.986,2.059 C1.81,2.291 1.677,2.553 1.587,2.847 C1.497,3.141 1.452,3.433 1.452,3.723 C1.452,4.048 1.504,4.36 1.607,4.661 C1.711,4.961 1.857,5.226 2.047,5.454 C2.237,5.682 2.465,5.865 2.731,6.003 C2.997,6.141 3.289,6.21 3.607,6.21 C3.773,6.21 3.946,6.189 4.125,6.148 C4.305,6.106 4.476,6.041 4.638,5.951 C4.8,5.861 4.951,5.746 5.089,5.604 C5.227,5.462 5.338,5.291 5.421,5.091 L6.592,5.765 C6.475,6.042 6.307,6.285 6.09,6.496 C5.872,6.707 5.627,6.884 5.354,7.03 C5.081,7.175 4.789,7.285 4.479,7.362 C4.168,7.438 3.864,7.476 3.567,7.476 C3.042,7.476 2.562,7.366 2.127,7.144 C1.692,6.923 1.317,6.635 1.003,6.278 C0.689,5.923 0.444,5.518 0.267,5.066 C0.088,4.611 -1.42108547e-14,4.15 -1.42108547e-14,3.68 Z"></path>
                            <path d="M11.938,1.98 C11.889,1.932 11.802,1.866 11.673,1.783 C11.545,1.7 11.39,1.619 11.207,1.54 C11.024,1.461 10.825,1.393 10.612,1.338 C10.398,1.283 10.18,1.255 9.959,1.255 C9.565,1.255 9.271,1.328 9.078,1.473 C8.885,1.618 8.788,1.822 8.788,2.084 C8.788,2.236 8.824,2.362 8.897,2.462 C8.969,2.563 9.075,2.651 9.213,2.727 C9.351,2.803 9.526,2.872 9.736,2.934 C9.947,2.996 10.19,3.062 10.467,3.131 C10.825,3.228 11.153,3.331 11.445,3.442 C11.739,3.552 11.988,3.691 12.191,3.856 C12.394,4.022 12.552,4.221 12.664,4.452 C12.773,4.684 12.83,4.969 12.83,5.307 C12.83,5.701 12.755,6.037 12.606,6.317 C12.457,6.597 12.257,6.823 12.005,6.996 C11.753,7.169 11.462,7.295 11.135,7.374 C10.806,7.453 10.463,7.493 10.104,7.493 C9.551,7.493 9.005,7.41 8.466,7.244 C7.927,7.078 7.444,6.843 7.015,6.539 L7.647,5.306 C7.709,5.368 7.821,5.449 7.984,5.549 C8.146,5.649 8.338,5.75 8.559,5.849 C8.78,5.95 9.025,6.034 9.294,6.103 C9.564,6.172 9.84,6.207 10.123,6.207 C10.91,6.207 11.304,5.955 11.304,5.451 C11.304,5.292 11.259,5.157 11.169,5.046 C11.08,4.936 10.951,4.839 10.786,4.756 C10.62,4.673 10.42,4.597 10.185,4.528 C9.95,4.459 9.687,4.383 9.397,4.3 C9.045,4.203 8.739,4.098 8.48,3.984 C8.221,3.87 8.005,3.736 7.832,3.58 C7.659,3.425 7.53,3.245 7.443,3.041 C7.357,2.837 7.313,2.594 7.313,2.31 C7.313,1.937 7.382,1.605 7.52,1.315 C7.658,1.025 7.85,0.783 8.095,0.59 C8.34,0.397 8.625,0.25 8.95,0.15 C9.275,0.05 9.624,0 9.997,0 C10.515,0 10.991,0.081 11.428,0.244 C11.863,0.406 12.242,0.598 12.567,0.819 L11.938,1.98 Z"></path>
                            <path d="M18.291,1.98 C18.242,1.932 18.154,1.866 18.027,1.783 C17.899,1.7 17.744,1.619 17.561,1.54 C17.378,1.461 17.179,1.393 16.965,1.338 C16.751,1.283 16.533,1.255 16.313,1.255 C15.919,1.255 15.625,1.328 15.432,1.473 C15.239,1.618 15.142,1.822 15.142,2.084 C15.142,2.236 15.179,2.362 15.251,2.462 C15.324,2.563 15.429,2.651 15.567,2.727 C15.706,2.803 15.88,2.872 16.09,2.934 C16.3,2.996 16.544,3.062 16.821,3.131 C17.18,3.228 17.506,3.331 17.8,3.442 C18.094,3.552 18.343,3.691 18.546,3.856 C18.749,4.022 18.907,4.221 19.018,4.452 C19.128,4.684 19.184,4.969 19.184,5.307 C19.184,5.701 19.11,6.037 18.961,6.317 C18.812,6.597 18.612,6.823 18.36,6.996 C18.107,7.169 17.817,7.295 17.489,7.374 C17.161,7.453 16.817,7.493 16.458,7.493 C15.906,7.493 15.359,7.41 14.821,7.244 C14.282,7.078 13.798,6.843 13.369,6.539 L14.001,5.306 C14.064,5.368 14.175,5.449 14.338,5.549 C14.5,5.649 14.692,5.75 14.913,5.849 C15.134,5.95 15.379,6.034 15.648,6.103 C15.918,6.172 16.194,6.207 16.477,6.207 C17.264,6.207 17.658,5.955 17.658,5.451 C17.658,5.292 17.613,5.157 17.523,5.046 C17.434,4.936 17.306,4.839 17.14,4.756 C16.975,4.673 16.774,4.597 16.539,4.528 C16.304,4.459 16.041,4.383 15.752,4.3 C15.399,4.203 15.094,4.098 14.834,3.984 C14.575,3.87 14.359,3.736 14.187,3.58 C14.014,3.425 13.884,3.245 13.798,3.041 C13.712,2.837 13.668,2.594 13.668,2.31 C13.668,1.937 13.738,1.605 13.875,1.315 C14.014,1.025 14.205,0.783 14.45,0.59 C14.696,0.397 14.981,0.25 15.305,0.15 C15.63,0.05 15.979,0 16.352,0 C16.87,0 17.347,0.081 17.782,0.244 C18.217,0.406 18.596,0.598 18.921,0.819 L18.291,1.98 Z"></path>
                        </g>
                    </g>
                </g>
                <g transform="translate(11.734000, 59.201000)">
                    <line x1="11.647" y1="92.25" x2="10.647" y2="92.25" id="Path" stroke="#263238" stroke-width="0.75"></line>
                    <line x1="8.818" y1="92.25" x2="2.415" y2="92.25" id="Path" stroke="#263238" stroke-width="0.75" stroke-dasharray="1.8295,1.8295"></line>
                    <polyline id="Path" stroke="#263238" stroke-width="0.75" points="1.5 92.25 0.5 92.25 0.5 91.25"></polyline>
                    <line x1="0.5" y1="89.269" x2="0.5" y2="3.119" id="Path" stroke="#263238" stroke-width="0.75" stroke-dasharray="1.9805,1.9805"></line>
                    <polyline id="Path" stroke="#263238" stroke-width="0.75" points="0.5 2.128 0.5 1.128 1.5 1.128"></polyline>
                    <line x1="3.117" y1="1.128" x2="8.779" y2="1.128" id="Path" stroke="#263238" stroke-width="0.75" stroke-dasharray="1.6175,1.6175"></line>
                    <line x1="9.588" y1="1.128" x2="10.588" y2="1.128" id="Path" stroke="#263238" stroke-width="0.75"></line>
                    <path d="M11.591,91.122 C12.214,91.122 12.719,91.627 12.719,92.25 C12.719,92.873 12.214,93.378 11.591,93.378 C10.968,93.378 10.463,92.873 10.463,92.25 C10.463,91.627 10.968,91.122 11.591,91.122 Z" id="Path" fill="#263238" fill-rule="nonzero"></path>
                    <circle id="Oval" fill="#263238" fill-rule="nonzero" cx="10.531" cy="1.128" r="1.128"></circle>
                </g>
                <g id="Path">
                    <path d="M12.234,105.826 L0,105.826 L0,1.496 L130.813,1.496" stroke="#263238" stroke-width="0.75" stroke-dasharray="2,2"></path>
                    <polygon fill="#263238" fill-rule="nonzero" points="130.375 2.992 132.966 1.496 130.375 0"></polygon>
                </g>
            </g>
            <g id="Window" transform="translate(266.536000, 40.253000)" fill-rule="nonzero">
                <g id="Group">
                    <g>
                        <rect id="Rectangle" fill="#FFFFFF" x="0.125" y="0.126" width="378.733" height="239.803"></rect>
                        <path d="M378.983,240.053 L0,240.053 L0,0 L378.983,0 L378.983,240.053 Z M0.25,239.803 L378.733,239.803 L378.733,0.25 L0.25,0.25 L0.25,239.803 Z" id="Shape" fill="#263238"></path>
                    </g>
                    <g transform="translate(0.125000, 0.126000)">
                        <rect id="Rectangle" fill="#55EFC4" x="0" y="0" width="378.733" height="9.227"></rect>
                        <g transform="translate(5.195000, 2.867000)" id="Path">
                            <path d="M3.492,1.746 C3.492,2.71 2.71,3.492 1.746,3.492 C0.782,3.492 0,2.71 0,1.746 C0,0.782 0.782,0 1.746,0 C2.71,0 3.492,0.782 3.492,1.746 Z" fill="#C7C7C7"></path>
                            <path d="M10.621,1.746 C10.621,2.71 9.839,3.492 8.875,3.492 C7.911,3.492 7.129,2.71 7.129,1.746 C7.129,0.782 7.911,0 8.875,0 C9.84,0 10.621,0.782 10.621,1.746 Z" fill="#FFFFFF"></path>
                            <path d="M17.751,1.746 C17.751,2.71 16.969,3.492 16.005,3.492 C15.041,3.492 14.259,2.71 14.259,1.746 C14.259,0.782 15.041,0 16.005,0 C16.969,0 17.751,0.782 17.751,1.746 Z" fill="#455A64"></path>
                        </g>
                    </g>
                    <rect id="Rectangle" fill="#EBEBEB" x="10.895" y="9.353" width="28" height="124.386"></rect>
                    <g transform="translate(0.125000, 24.691000)">
                        <g transform="translate(23.491000, 0.000000)">
                            <rect id="Rectangle" fill="#55EFC4" x="0" y="0" width="331.752" height="30.131"></rect>
                            <g transform="translate(15.279000, 10.439000)">
                                <g transform="translate(0.000000, 1.223000)" fill="#FFFFFF" id="Rectangle">
                                    <rect x="5.68434189e-14" y="0" width="7.642" height="1.242"></rect>
                                    <rect x="5.68434189e-14" y="5.566" width="7.642" height="1.242"></rect>
                                    <rect x="5.68434189e-14" y="2.815" width="7.642" height="1.242"></rect>
                                </g>
                                <g transform="translate(24.643000, 0.000000)">
                                    <g transform="translate(0.000000, 0.002000)" fill="#FFFFFF">
                                        <rect id="Rectangle" x="0.093" y="0.092" width="73.539" height="9.065"></rect>
                                        <polygon id="Path" points="73.724 9.249 0 9.249 0 0 73.724 0"></polygon>
                                    </g>
                                    <rect id="Rectangle" fill="#455A64" x="64.473" y="1.42108547e-14" width="9.254" height="9.254"></rect>
                                    <g transform="translate(66.226933, 1.450305)" fill="#FFFFFF">
                                        <path d="M5.74606716,5.71669471 L4.90906716,6.35069471 L3.35806716,4.30269471 L2.79006716,3.55369471 C2.90406716,3.50969471 3.01306716,3.44769471 3.11506716,3.36969471 C3.31206716,3.21969471 3.45506716,3.02569471 3.54506716,2.81269471 L4.14806716,3.60669471 L5.74606716,5.71669471 Z" id="Path"></path>
                                        <path d="M4.09806716,0.894694714 C3.33006716,-0.106305286 1.89506716,-0.296305286 0.89406716,0.471694714 C-0.10693284,1.23969471 -0.29593284,2.67469471 0.47206716,3.67669471 C1.16206716,4.57669471 2.39006716,4.82069471 3.35906716,4.30369471 C3.46906716,4.24469471 3.57406716,4.17769471 3.67506716,4.09969471 C3.86206716,3.95569471 4.02006716,3.78969471 4.14906716,3.60769471 C4.71306716,2.81169471 4.72206716,1.71069471 4.09806716,0.894694714 Z M3.11506716,3.36969471 C3.01306716,3.44769471 2.90306716,3.50969471 2.79006716,3.55369471 C2.23506716,3.77569471 1.58106716,3.61369471 1.20006716,3.11769471 C0.74106716,2.51869471 0.85306716,1.65969471 1.45206716,1.20069471 C2.05106716,0.741694714 2.90806716,0.854694714 3.36906716,1.45469471 C3.67706716,1.85669471 3.72706716,2.37669471 3.54606716,2.81269471 C3.45606716,3.02569471 3.31206716,3.22069471 3.11506716,3.36969471 Z" id="Shape"></path>
                                    </g>
                                    <rect id="Rectangle" fill="#C7C7C7" x="1.988" y="1.876" width="1" height="5.501"></rect>
                                </g>
                                <g transform="translate(123.050000, 3.247000)" id="Rectangle">
                                    <rect fill="#FFFFFF" x="146.318" y="0" width="31.784" height="2.759"></rect>
                                    <rect fill="#FFFFFF" x="97.545" y="0" width="31.784" height="2.759"></rect>
                                    <rect fill="#000000" opacity="0.1" x="48.773" y="0" width="31.784" height="2.759"></rect>
                                    <rect fill="#FFFFFF" x="5.68434189e-14" y="0" width="31.784" height="2.759"></rect>
                                </g>
                            </g>
                        </g>
                        <rect id="Rectangle" fill="#218C74" x="0" y="124.009" width="378.733" height="30.131"></rect>
                        <g transform="translate(23.491000, 168.369000)">
                            <rect id="Rectangle" fill="#455A64" x="0" y="0" width="73.297" height="3.389"></rect>
                            <g transform="translate(0.000000, 11.116000)" fill="#A6A6A6" id="Path">
                                <polygon points="0 0.5 11.761 0.318 23.522 0.213 47.043 0.125 70.565 0.212 82.326 0.316 94.087 0.5 82.326 0.683 70.565 0.788 47.043 0.875 23.522 0.787 11.761 0.682"></polygon>
                                <polygon points="0 5.126 11.761 4.943 23.522 4.838 47.043 4.751 70.565 4.837 82.326 4.942 94.087 5.126 82.326 5.309 70.565 5.414 47.043 5.5 23.522 5.413 11.761 5.308"></polygon>
                                <polygon points="0 9.751 11.761 9.569 23.522 9.464 47.043 9.377 70.565 9.463 82.326 9.568 94.087 9.751 82.326 9.935 70.565 10.04 47.043 10.126 23.522 10.039 11.761 9.934"></polygon>
                                <polygon points="0 14.377 11.761 14.195 23.522 14.09 47.043 14.002 70.565 14.089 82.326 14.194 94.087 14.377 82.326 14.561 70.565 14.665 47.043 14.752 23.522 14.664 11.761 14.559"></polygon>
                                <path d="M0,19.003 C3.92,18.848 7.84,18.776 11.761,18.716 L23.522,18.629 L35.283,18.715 C39.203,18.775 43.124,18.848 47.044,19.004 C43.124,19.16 39.203,19.232 35.283,19.292 L23.522,19.378 L11.761,19.291 C7.84,19.23 3.92,19.157 0,19.003 Z"></path>
                            </g>
                        </g>
                        <g transform="translate(142.324000, 168.369000)">
                            <rect id="Rectangle" fill="#455A64" x="5.68434189e-14" y="0" width="73.297" height="3.389"></rect>
                            <g transform="translate(0.000000, 11.116000)" fill="#A6A6A6" id="Path">
                                <polygon points="5.68434189e-14 0.5 11.76 0.318 23.521 0.213 47.043 0.125 70.565 0.212 82.325 0.316 94.086 0.5 82.325 0.683 70.565 0.788 47.043 0.875 23.521 0.787 11.76 0.682"></polygon>
                                <polygon points="5.68434189e-14 5.126 11.76 4.943 23.521 4.838 47.043 4.751 70.565 4.837 82.325 4.942 94.086 5.126 82.325 5.309 70.565 5.414 47.043 5.5 23.521 5.413 11.76 5.308"></polygon>
                                <polygon points="5.68434189e-14 9.751 11.76 9.569 23.521 9.464 47.043 9.377 70.565 9.463 82.325 9.568 94.086 9.751 82.325 9.935 70.565 10.04 47.043 10.126 23.521 10.039 11.76 9.934"></polygon>
                                <polygon points="5.68434189e-14 14.377 11.76 14.195 23.521 14.09 47.043 14.002 70.565 14.089 82.325 14.194 94.086 14.377 82.325 14.561 70.565 14.665 47.043 14.752 23.521 14.664 11.76 14.559"></polygon>
                                <path d="M5.68434189e-14,19.003 C3.92,18.848 7.84,18.776 11.761,18.716 L23.522,18.629 L35.283,18.715 C39.203,18.775 43.124,18.848 47.044,19.004 C43.124,19.16 39.203,19.232 35.283,19.292 L23.522,19.378 L11.761,19.291 C7.84,19.23 3.92,19.157 5.68434189e-14,19.003 Z"></path>
                            </g>
                        </g>
                        <g transform="translate(261.156000, 168.369000)">
                            <rect id="Rectangle" fill="#455A64" x="0" y="0" width="73.297" height="3.389"></rect>
                            <g transform="translate(0.000000, 11.116000)" fill="#A6A6A6" id="Path">
                                <polygon points="0 0.5 11.761 0.318 23.522 0.213 47.043 0.125 70.565 0.212 82.326 0.316 94.087 0.5 82.326 0.683 70.565 0.788 47.043 0.875 23.522 0.787 11.761 0.682"></polygon>
                                <polygon points="0 5.126 11.761 4.943 23.522 4.838 47.043 4.751 70.565 4.837 82.326 4.942 94.087 5.126 82.326 5.309 70.565 5.414 47.043 5.5 23.522 5.413 11.761 5.308"></polygon>
                                <polygon points="0 9.751 11.761 9.569 23.522 9.464 47.043 9.377 70.565 9.463 82.326 9.568 94.087 9.751 82.326 9.935 70.565 10.04 47.043 10.126 23.522 10.039 11.761 9.934"></polygon>
                                <polygon points="0 14.377 11.761 14.195 23.522 14.09 47.043 14.002 70.565 14.089 82.326 14.194 94.087 14.377 82.326 14.561 70.565 14.665 47.043 14.752 23.522 14.664 11.761 14.559"></polygon>
                                <path d="M0,19.003 C3.92,18.848 7.84,18.776 11.761,18.716 L23.522,18.629 L35.283,18.715 C39.203,18.775 43.124,18.848 47.044,19.004 C43.124,19.16 39.203,19.232 35.283,19.292 L23.522,19.378 L11.761,19.291 C7.84,19.23 3.92,19.157 0,19.003 Z"></path>
                            </g>
                        </g>
                        <g transform="translate(65.200800, 48.713500)">
                            <rect id="Rectangle" fill="#EBEBEB" transform="translate(32.052500, 32.052500) rotate(-180.000000) translate(-32.052500, -32.052500) " x="0" y="0" width="64.105" height="64.105"></rect>
                            <rect id="Rectangle" fill="#455A64" transform="translate(32.052000, 32.053000) rotate(-180.000000) translate(-32.052000, -32.053000) " x="3.77" y="3.771" width="56.564" height="56.564"></rect>
                            <path d="M12.8812,17.2675 C12.1692,21.0255 15.4022,24.2585 19.1602,23.5465 C21.2592,23.1485 22.9522,21.4555 23.3502,19.3555 C24.0622,15.5975 20.8292,12.3655 17.0712,13.0775 C14.9722,13.4755 13.2792,15.1685 12.8812,17.2675 Z" id="Path" fill="#37474F"></path>
                            <polygon id="Path" fill="#37474F" points="19.4542 45.6535 60.3342 45.6535 39.8942 22.7325"></polygon>
                            <polygon id="Path" fill="#263238" points="3.7702 45.6535 37.5202 45.6535 20.6452 30.7275"></polygon>
                            <rect id="Rectangle" fill="#263238" x="3.7702" y="45.6535" width="56.564" height="14.681"></rect>
                        </g>
                        <g transform="translate(249.428600, 48.713500)">
                            <rect id="Rectangle" fill="#EBEBEB" transform="translate(32.052500, 32.052500) rotate(-180.000000) translate(-32.052500, -32.052500) " x="0" y="0" width="64.105" height="64.105"></rect>
                            <g transform="translate(3.770000, 3.771000)">
                                <rect id="Rectangle" fill="#455A64" transform="translate(28.282000, 28.282000) rotate(-180.000000) translate(-28.282000, -28.282000) " x="-1.13686838e-13" y="-2.84217094e-14" width="56.564" height="56.564"></rect>
                                <path d="M9.1114,13.4965 C8.3994,17.2545 11.6324,20.4875 15.3904,19.7755 C17.4894,19.3775 19.1824,17.6845 19.5804,15.5845 C20.2924,11.8265 17.0594,8.5945 13.3014,9.3065 C11.2024,9.7045 9.5094,11.3975 9.1114,13.4965 Z" id="Path" fill="#37474F"></path>
                                <polygon id="Path" fill="#37474F" points="15.6844 41.8825 56.5644 41.8825 36.1244 18.9615"></polygon>
                                <polygon id="Path" fill="#263238" points="0.0004 41.8825 33.7504 41.8825 16.8754 26.9565"></polygon>
                                <rect id="Rectangle" fill="#263238" x="0.0004" y="41.8825" width="56.564" height="14.681"></rect>
                            </g>
                        </g>
                        <g transform="translate(157.314700, 48.713500)">
                            <rect id="Rectangle" fill="#EBEBEB" transform="translate(32.052500, 32.052500) rotate(-180.000000) translate(-32.052500, -32.052500) " x="0" y="0" width="64.105" height="64.105"></rect>
                            <g transform="translate(3.770000, 3.771000)">
                                <rect id="Rectangle" fill="#00CEC9" transform="translate(28.282000, 28.282000) rotate(-180.000000) translate(-28.282000, -28.282000) " x="0" y="0" width="56.564" height="56.564"></rect>
                                <path d="M9.1113,13.4965 C8.3993,17.2545 11.6323,20.4875 15.3903,19.7755 C17.4893,19.3775 19.1823,17.6845 19.5803,15.5845 C20.2923,11.8265 17.0593,8.5945 13.3023,9.3065 C11.2023,9.7045 9.5093,11.3975 9.1113,13.4965 Z" id="Path" fill="#000000" opacity="0.1"></path>
                                <polygon id="Path" fill="#000000" opacity="0.1" points="15.6843 41.8825 56.5643 41.8825 36.1243 18.9615"></polygon>
                                <polygon id="Path" fill="#218C74" points="0.0003 41.8825 33.7503 41.8825 16.8753 26.9565"></polygon>
                                <g opacity="0.2" transform="translate(0.000300, 26.956500)" fill="#00CEC9" id="Path">
                                    <polygon points="0 14.926 33.75 14.926 16.875 0"></polygon>
                                </g>
                                <polygon id="Rectangle" fill="#218C74" points="0.0003 41.8825 21.4484642 41.8825 56.5643 41.8825 56.5643 56.5635 0.0003 56.5635"></polygon>
                                <rect id="Rectangle" fill="#218C74" opacity="0.2" x="0.0003" y="41.8825" width="56.564" height="14.681"></rect>
                            </g>
                        </g>
                        <g transform="translate(23.609000, 131.635500)" fill="#FFFFFF" id="Path">
                            <g transform="translate(45.362000, 0.000000)">
                                <polygon points="0 0.5005 15.653 0.3175 31.305 0.2135 62.611 0.1255 93.916 0.2115 109.568 0.3165 125.221 0.5005 109.568 0.6835 93.916 0.7885 62.611 0.8745 31.305 0.7875 15.653 0.6825"></polygon>
                                <polygon points="0 5.1255 15.653 4.9435 31.305 4.8385 62.611 4.7515 93.916 4.8375 109.568 4.9425 125.221 5.1255 109.568 5.3095 93.916 5.4145 62.611 5.5005 31.305 5.4135 15.653 5.3085"></polygon>
                                <polygon points="0 9.7515 15.653 9.5695 31.305 9.4645 62.611 9.3775 93.916 9.4635 109.568 9.5675 125.221 9.7515 109.568 9.9355 93.916 10.0395 62.611 10.1265 31.305 10.0385 15.653 9.9335"></polygon>
                                <path d="M0,14.3775 C5.217,14.2225 10.435,14.1505 15.653,14.0905 L31.306,14.0035 L46.959,14.0895 C52.176,14.1495 57.394,14.2225 62.612,14.3775 C57.395,14.5335 52.177,14.6055 46.959,14.6655 L31.306,14.7515 L15.653,14.6645 C10.435,14.6045 5.217,14.5315 0,14.3775 Z"></path>
                            </g>
                            <polygon points="4.458 12.0265 4.458 2.8515 0 7.1085"></polygon>
                            <polygon points="327.296 2.8515 327.296 12.0265 331.754 7.7695"></polygon>
                        </g>
                    </g>
                </g>
            </g>
            <g id="Group" transform="translate(142.990000, 9.956000)">
                <g transform="translate(46.096000, 13.152000)" fill="#00CEC9" fill-rule="nonzero">
                    <path d="M20.234,39.679 C20.234,50.402 28.955,59.123 39.67,59.123 C50.397,59.123 59.118,50.402 59.118,39.679 C59.118,28.957 50.397,20.231 39.67,20.231 C28.955,20.231 20.234,28.956 20.234,39.679 Z M24.372,39.679 C24.372,31.221 31.22,24.369 39.67,24.369 C48.136,24.369 54.983,31.221 54.983,39.679 C54.983,48.133 48.135,54.985 39.67,54.985 C31.219,54.984 24.372,48.133 24.372,39.679 Z M20.234,39.679 C20.234,50.402 28.955,59.123 39.67,59.123 C50.397,59.123 59.118,50.402 59.118,39.679 C59.118,28.957 50.397,20.231 39.67,20.231 C28.955,20.231 20.234,28.956 20.234,39.679 Z M24.372,39.679 C24.372,31.221 31.22,24.369 39.67,24.369 C48.136,24.369 54.983,31.221 54.983,39.679 C54.983,48.133 48.135,54.985 39.67,54.985 C31.219,54.984 24.372,48.133 24.372,39.679 Z M6.898,39.679 C6.898,57.78 21.577,72.455 39.67,72.455 C57.778,72.455 72.453,57.78 72.453,39.679 C72.453,21.575 57.778,6.896 39.67,6.896 C21.577,6.896 6.898,21.574 6.898,39.679 Z M18.368,39.679 C18.368,27.931 27.925,18.366 39.67,18.366 C51.422,18.366 60.987,27.931 60.987,39.679 C60.987,51.431 51.422,60.989 39.67,60.989 C27.925,60.988 18.368,51.431 18.368,39.679 Z M20.234,39.679 C20.234,50.402 28.955,59.123 39.67,59.123 C50.397,59.123 59.118,50.402 59.118,39.679 C59.118,28.957 50.397,20.231 39.67,20.231 C28.955,20.231 20.234,28.956 20.234,39.679 Z M24.372,39.679 C24.372,31.221 31.22,24.369 39.67,24.369 C48.136,24.369 54.983,31.221 54.983,39.679 C54.983,48.133 48.135,54.985 39.67,54.985 C31.219,54.984 24.372,48.133 24.372,39.679 Z" id="Shape"></path>
                    <g id="Path">
                        <polygon points="35.827 7.491 43.332 7.491 42.585 0 36.575 0"></polygon>
                        <polygon points="52.436 9.878 58.936 13.631 62.034 6.77 56.829 3.764"></polygon>
                        <polygon points="65.626 20.25 69.378 26.75 75.492 22.357 72.487 17.152"></polygon>
                        <polygon points="71.863 35.827 71.863 43.333 79.354 42.585 79.354 36.575"></polygon>
                        <polygon points="69.475 52.436 65.723 58.936 72.584 62.034 75.589 56.829"></polygon>
                        <polygon points="59.103 65.626 52.604 69.379 56.997 75.493 62.202 72.487"></polygon>
                        <polygon points="43.526 71.863 36.021 71.863 36.768 79.354 42.779 79.354"></polygon>
                        <polygon points="26.917 69.476 20.418 65.723 17.319 72.584 22.525 75.589"></polygon>
                        <polygon points="13.728 59.104 9.975 52.604 3.861 56.997 6.866 62.202"></polygon>
                        <polygon points="7.491 43.526 7.491 36.021 0 36.769 0 42.779"></polygon>
                        <polygon points="9.878 26.918 13.631 20.418 6.769 17.32 3.764 22.525"></polygon>
                        <polygon points="20.25 13.728 26.75 9.975 22.357 3.861 17.152 6.867"></polygon>
                    </g>
                </g>
                <g fill="#EBEBEB" fill-rule="nonzero">
                    <g>
                        <path d="M3.964,23.055 C3.686,33.585 12,42.35 22.53,42.628 C33.064,42.906 41.829,34.592 42.107,24.062 C42.385,13.528 34.071,4.763 23.537,4.485 C13.007,4.206 4.242,12.521 3.964,23.055 Z M14.13,23.323 C14.26,18.4 18.351,14.52 23.269,14.65 C28.191,14.78 32.072,18.871 31.942,23.794 C31.812,28.712 27.721,32.593 22.798,32.463 C17.88,32.333 14,28.242 14.13,23.323 Z" id="Shape"></path>
                        <polygon id="Path" points="19.852 5.18 27.185 5.374 26.917 0.172 20.394 -7.10542736e-15"></polygon>
                        <polygon id="Path" points="33.745 8.019 38.794 13.342 42.282 9.474 37.792 4.74"></polygon>
                        <polygon id="Path" points="41.562 19.851 41.368 27.185 46.57 26.917 46.742 20.394"></polygon>
                        <polygon id="Path" points="38.722 33.745 33.4 38.794 37.268 42.282 42.002 37.792"></polygon>
                        <polygon id="Path" points="26.89 41.562 19.557 41.368 19.825 46.57 26.348 46.742"></polygon>
                        <polygon id="Path" points="12.997 38.722 7.948 33.399 4.459 37.268 8.95 42.002"></polygon>
                        <polygon id="Path" points="5.18 26.89 5.374 19.556 0.172 19.825 0 26.348"></polygon>
                        <polygon id="Path" points="8.02 12.997 13.342 7.948 9.474 4.459 4.74 8.95"></polygon>
                    </g>
                    <path d="M28.103,18.882 L21.85,17.027 L17.119,21.519 L18.642,27.857 L24.891,29.712 L29.627,25.224 L28.103,18.882 Z M23.317,25.437 C22.173,25.407 21.274,24.46 21.305,23.315 C21.335,22.175 22.282,21.272 23.427,21.302 C24.567,21.332 25.47,22.284 25.439,23.424 C25.409,24.569 24.457,25.467 23.317,25.437 Z" id="Shape"></path>
                </g>
                <g transform="translate(85.676000, 2.644000)" id="Path">
                    <path d="M0,5.234 L0,7.10542736e-15 L118.107,7.10542736e-15 L118.107,19.955" stroke="#263238" stroke-width="0.75" stroke-dasharray="2,2"></path>
                    <polygon fill="#263238" fill-rule="nonzero" points="116.611 19.517 118.107 22.107 119.603 19.517"></polygon>
                </g>
            </g>
        </g>
    </g>
</svg>