<?xml version="1.0" encoding="UTF-8"?>
<svg width="57px" height="57px" viewBox="0 0 57 57" version="1.1" xmlns="http://www.w3.org/2000/svg" xmlns:xlink="http://www.w3.org/1999/xlink">
    <title>Shape</title>
    <g id="â–¶ï¸--Grid" stroke="none" stroke-width="1" fill="none" fill-rule="evenodd">
        <g id="social" fill="#00CEC9" fill-rule="nonzero">
            <g id="twitter-rounded-svgrepo-com">
                <path d="M52.546875,0 L4.453125,0 C1.99277344,0 0,1.99277344 0,4.453125 L0,52.546875 C0,55.0072266 1.99277344,57 4.453125,57 L52.546875,57 C55.0072266,57 57,55.0072266 57,52.546875 L57,4.453125 C57,1.99277344 55.0072266,0 52.546875,0 Z M39.8777344,24.0691406 C39.8888672,24.3140625 39.8888672,24.5701172 39.8888672,24.8261719 C39.8888672,32.5634766 33.9996094,41.4919922 23.2230469,41.4919922 C19.9166016,41.4919922 16.8328125,40.5234375 14.25,38.8646484 C14.7064453,38.9203125 15.1740234,38.9425781 15.6527344,38.9425781 C18.3914062,38.9425781 20.9185547,38.0074219 22.9224609,36.4376953 C20.3619141,36.3931641 18.1910156,34.7009766 17.45625,32.3742187 C17.8125,32.4410156 18.1798828,32.4744141 18.5583984,32.4744141 C19.0927734,32.4744141 19.6160156,32.4076172 20.1058594,32.2628906 C17.4228516,31.7285156 15.4078125,29.3572266 15.4078125,26.5183594 L15.4078125,26.4515625 C16.1982422,26.8857422 17.1,27.1529297 18.0574219,27.1863281 C16.4876953,26.1398437 15.4523438,24.3363281 15.4523438,22.3101562 C15.4523438,21.2414062 15.7417969,20.2283203 16.2427734,19.3599609 C19.1373047,22.9113281 23.4457031,25.2380859 28.3107422,25.4830078 C28.2105469,25.0599609 28.1548828,24.6146484 28.1548828,24.1470703 C28.1548828,20.9185547 30.7822266,18.2912109 34.0107422,18.2912109 C35.6917969,18.2912109 37.2169922,19.0037109 38.2857422,20.1392578 C39.6216797,19.8720703 40.8685547,19.3933594 42.0041016,18.7142578 C41.5699219,20.0835937 40.6347656,21.2302734 39.4324219,21.9539062 C40.6125,21.8091797 41.7480469,21.4974609 42.7945313,21.0298828 C42.0152344,22.2099609 41.0244141,23.2341797 39.8777344,24.0691406 Z" id="Shape"></path>
            </g>
        </g>
    </g>
</svg>